<svg width="24" height="24" viewBox="0 0 24 24" fill="none" xmlns="http://www.w3.org/2000/svg">
<path fill-rule="evenodd" clip-rule="evenodd" d="M12 6.36364C8.36364 6.36364 5.25818 8.62546 4 11.8182C5.25818 15.0109 8.36364 17.2727 12 17.2727C15.6364 17.2727 18.7418 15.0109 20 11.8182C18.7418 8.62546 15.6364 6.36364 12 6.36364ZM12 15.4545C9.99273 15.4545 8.36364 13.8255 8.36364 11.8182C8.36364 9.81091 9.99273 8.18182 12 8.18182C14.0073 8.18182 15.6364 9.81091 15.6364 11.8182C15.6364 13.8255 14.0073 15.4545 12 15.4545ZM9.81818 11.8182C9.81818 10.6109 10.7927 9.63637 12 9.63637C13.2073 9.63637 14.1818 10.6109 14.1818 11.8182C14.1818 13.0255 13.2073 14 12 14C10.7927 14 9.81818 13.0255 9.81818 11.8182Z" fill="#D0C9D6"/>
</svg>
